<svg version="1.1" xmlns="http://www.w3.org/2000/svg"><defs><style>.cls-1{fill:#b71616;}.cls-2{fill:#e21b1b;fill-rule:evenodd;}.cls-3{fill:#fff;}</style></defs><path class="cls-1" d="m1.2223 43.969 22.362-38.657 0.088532-0.14061a11.936 11.936 0 0 1 3.6454-3.7652 8.8532 8.8532 0 0 1 4.7495-1.4061 8.7386 8.7386 0 0 1 4.7442 1.4009 11.868 11.868 0 0 1 3.6454 3.7808c0.0677 0.10936 0.13019 0.21872 0.18748 0.3333l21.997 38.194 0.11978 0.22914a11.572 11.572 0 0 1 1.2342 5.3067 9.1604 9.1604 0 0 1-1.1249 4.3485 8.3324 8.3324 0 0 1-3.6142 3.4423l-0.30205 0.1354a11.113 11.113 0 0 1-4.7442 0.90615h-45.037-0.34371a9.4104 9.4104 0 0 1-3.2288-0.59889 8.5719 8.5719 0 0 1-4.0412-3.1819 9.1604 9.1604 0 0 1-1.5623-4.989 11.978 11.978 0 0 1 0.81761-4.5516 4.2912 4.2912 0 0 1 0.401-0.78637z" stroke-width=".52077"/><path class="cls-2" d="m4.6855 46.224 22.471-38.85c2.7236-4.2964 7.0461-4.4057 9.827 0l22.102 38.381c1.7602 3.5465 0.88532 8.3324-4.864 8.2126h-45.047c-3.786 0.09374-6.2493-3.2236-4.4995-7.7439z" stroke-width=".52077"/><path class="cls-3" d="m29.979 43.068a2.8695 2.8695 0 0 1 1.8123-0.82282 2.9944 2.9944 0 0 1 1.2499 0.18227 3.0309 3.0309 0 0 1 1.0415 0.68221 2.8799 2.8799 0 0 1 0.84365 1.8487 3.1507 3.1507 0 0 1-0.04166 0.72908 2.8851 2.8851 0 0 1-2.9372 2.3956 2.9528 2.9528 0 0 1-1.1822-0.2708 2.8955 2.8955 0 0 1-1.4686-1.5311 2.9424 2.9424 0 0 1-0.18227-0.66138 3.0361 3.0361 0 0 1-0.03125-0.68221 3.2236 3.2236 0 0 1 0.29684-1.0415 2.3799 2.3799 0 0 1 0.58847-0.81241zm4.2495-5.3327c-0.10415 2.4945-4.3276 2.4997-4.4266 0-0.42704-4.2756-1.5207-15.306-1.4842-19.321 0.03645-1.2394 1.0415-1.9737 2.3747-2.255a6.6815 6.6815 0 0 1 2.6039 0c1.3592 0.29163 2.4216 1.0415 2.4216 2.3122v0.12499z" stroke-width=".52077"/></svg>